<svg xmlns="http://www.w3.org/2000/svg" shape-rendering="geometricPrecision" text-rendering="geometricPrecision" image-rendering="optimizeQuality" fill-rule="evenodd" clip-rule="evenodd" viewBox="0 0 402 512.37"><path fill-rule="nonzero" d="M271.34 512.36H22.74c-6.11 0-11.9-2.54-16.05-6.69C2.54 501.53 0 495.94 0 489.62V22.74c0-6.32 2.54-11.9 6.69-16.05S16.42 0 22.74 0h356.15c6.32 0 11.9 2.54 16.05 6.69s6.69 9.73 6.69 16.05v357.2c.17.9.37 1.64.37 2.54 0 3.08-1.44 5.79-3.45 7.76L281.07 509.08c-1.99 1.95-6.6 3.38-9.73 3.28zM96.01 115.26l-9.09 2.46c-11.97 0-20.03-3.06-24.16-9.19-2.14-3.07-3.64-6.51-4.49-10.32-.86-3.81-1.28-8.43-1.28-13.84 0-12.19 2.28-21.09 6.84-26.68 4.56-5.6 12.76-8.39 24.59-8.39s20.06 2.81 24.69 8.44c4.64 5.63 6.95 14.51 6.95 26.63 0 9.05-1.89 16.35-5.66 21.91l7.7 4.49-5.56 12.3-20.53-3.75v-4.06zm-16.04-14.22h8.88c2.92 0 5.04-.34 6.36-1.01 1.32-.68 1.97-2.23 1.97-4.65v-27.8H88.2c-2.85 0-4.93.34-6.25 1.01-1.32.68-1.98 2.23-1.98 4.66v27.79zm69.82-36.78v39.45h3.32c2.57 0 4.44-.27 5.61-.8 1.17-.52 1.77-1.76 1.77-3.69V64.26h21.38v53.46h-10.69l-6.2-6.09c-4.28 5.13-10.37 7.69-18.28 7.69-6.35 0-10.99-1.36-13.9-4.06-2.92-2.7-4.39-7.23-4.39-13.57V64.26h21.38zm47.32 48.06c-4.45-4.66-6.69-11.78-6.69-21.33 0-9.55 2.23-16.66 6.69-21.33 4.44-4.66 11.67-7 21.65-7 9.97 0 17.2 2.34 21.64 7 4.46 4.67 6.69 11.78 6.69 21.33 0 9.55-2.23 16.67-6.69 21.33-4.44 4.66-11.67 7-21.64 7-9.98 0-17.21-2.34-21.65-7zm16.3-29.56v20.95h3.31c2.57 0 4.45-.27 5.62-.8 1.17-.52 1.76-1.76 1.76-3.69V78.27h-3.31c-2.56 0-4.45.27-5.62.8s-1.76 1.78-1.76 3.69zm39.02-4.7v-13.8h5.35v-8.55l21.38-5.34v13.89h7.38v13.8h-7.38v24.37c1.86.36 3.96.61 6.31.75l-.96 15.72c-9.77 0-16.11-.56-19.03-1.61-3.62-1.29-5.92-3-6.85-5.13-.55-1.28-.85-2.78-.85-4.49V78.06h-5.35zm62.97 20.28v4.95c9.04.9 17.85-.15 26.52-2.89l2.57 15.72c-7.99 2.14-15.9 3.2-23.74 3.2-9.98 0-17.2-2.34-21.65-7-4.45-4.66-6.68-11.78-6.68-21.33 0-9.55 2.23-16.66 6.68-21.33 4.45-4.66 11.66-7 21.6-7 9.94 0 16.8 1.36 20.58 4.06 3.78 2.71 5.66 7.77 5.66 15.18 0 6.28-2.26 9.58-6.78 12.32-4.53 2.75-12.78 4.12-24.76 4.12zm0-15.58v4.38h4.39c2.57 0 4.44-.27 5.61-.8 1.17-.52 1.77-1.76 1.77-3.69v-6.8h-4.39c-2.55 0-4.44.27-5.61.8s-1.77 4.2-1.77 6.11zM112.92 388.32c8.21 0 15.65 3.33 21.03 8.72a29.624 29.624 0 0 1 8.72 21.03c0 8.21-3.33 15.65-8.72 21.04l-.32.29c-5.36 5.21-12.67 8.42-20.71 8.42-8.21 0-15.65-3.33-21.04-8.71-5.38-5.39-8.71-12.83-8.71-21.04 0-8.21 3.33-15.65 8.71-21.03 5.39-5.39 12.83-8.72 21.04-8.72zm0-24.62c14.99 0 28.58 6.09 38.43 15.92l.03.04c9.83 9.84 15.91 23.43 15.91 38.41 0 15.01-6.09 28.61-15.92 38.45l-.32.29c-9.82 9.66-23.29 15.64-38.13 15.64-15.01 0-28.61-6.09-38.45-15.93-9.84-9.84-15.92-23.44-15.92-38.45 0-14.99 6.09-28.59 15.94-38.43 9.82-9.85 23.42-15.94 38.43-15.94zm30.81 23.56c-7.88-7.87-18.77-12.74-30.81-12.74-12.03 0-22.92 4.87-30.8 12.75a43.382 43.382 0 0 0-12.75 30.8c0 12.03 4.87 22.92 12.75 30.8 7.88 7.88 18.77 12.75 30.8 12.75a43.4 43.4 0 0 0 30.55-12.49l.25-.26c7.88-7.88 12.75-18.77 12.75-30.8 0-12.04-4.87-22.93-12.74-30.81zm-45.65-196.1c-4.03 0-7.3-3.27-7.3-7.3 0-4.04 3.27-7.31 7.3-7.31H244.5c4.04 0 7.31 3.27 7.31 7.31 0 4.03-3.27 7.3-7.31 7.3H98.08zm0 112.1c-4.03 0-7.3-3.27-7.3-7.3 0-4.03 3.27-7.31 7.3-7.31h201.91c4.03 0 7.3 3.28 7.3 7.31 0 4.03-3.27 7.3-7.3 7.3H98.08zm0-44.62c-4.03 0-7.3-3.26-7.3-7.3 0-4.03 3.27-7.3 7.3-7.3H244.5c4.04 0 7.31 3.27 7.31 7.3 0 4.04-3.27 7.3-7.31 7.3H98.08zm232.66-35.13H71.26v99.8h259.48v-99.8zM71.26 208.9h259.48v-52.18H71.26v52.18zm-7.31-66.79h274.09c4.03 0 7.3 3.27 7.3 7.31v181.19c0 4.03-3.27 7.3-7.3 7.3H63.95c-4.03 0-7.3-3.27-7.3-7.3V149.42c0-4.04 3.27-7.31 7.3-7.31zm198.73 349.85v-88.95c0-8.5 3.45-16.26 9.03-21.84a30.85 30.85 0 0 1 21.84-9.03h87.31V22.7c0-.53-.17-1.27-.74-1.64-.37-.37-.9-.74-1.64-.74H22.54c-.54 0-1.28.17-1.64.74-.38.37-.74 1.07-.74 1.64v466.92c0 .74.16 1.27.74 1.64.36.37.9.74 1.64.74h240.14v-.04zm20.4-88.95v74.5l83.9-84.97h-73.43c-2.88 0-5.42 1.27-7.39 3.08-1.85 1.8-3.08 4.51-3.08 7.39z"/></svg>